<?xml version="1.0" encoding="utf-8"?>
<!-- Generator: Adobe Illustrator 25.2.3, SVG Export Plug-In . SVG Version: 6.00 Build 0)  -->
<svg version="1.1" id="Layer_1" xmlns="http://www.w3.org/2000/svg" xmlns:xlink="http://www.w3.org/1999/xlink" x="0px" y="0px"
	 viewBox="0 0 150 150" style="enable-background:new 0 0 150 150;" xml:space="preserve">
<style type="text/css">
	.st0{enable-background:new    ;}
	.st1{opacity:0.6784;enable-background:new    ;}
	.st2{fill:#FFFFFF;}
</style>
<g id="Rectangle_1_1_" class="st0">
</g>
<g id="Rectangle_1_copy_1_" class="st0">
</g>
<g id="Rectangle_1_copy_2_1_" class="st0">
</g>
<g id="Rectangle_1_copy_3_1_" class="st0">
</g>
<g id="Shape_1_1_" class="st1">
</g>
<g id="ovs-logo-DBCD422915-seeklogo.com_xA0_Image_1_">
	<g>
		<path class="st2" d="M-752-241.3c-68.5,0-137,0-205.5,0c-0.1,0.3-0.2,0.7-0.4,1c-2.2,2.4-4.5,4.7-6.8,7c-0.3,0.3-0.8,0.5-1.2,0.5
			c-0.9,0.1-1.7,0-2.9,0c1.3-1.8,2.4-3.4,3.5-4.9c0.8-1.2,1.6-2.4,2.4-3.6c-15.3,0-30.7,0-46,0c0,1.3,0,2.6,0,4
			c1.2-0.1,2.4-0.2,3.6-0.2c0.2,0,0.5,0.7,0.6,1.1c0,4.8,0,9.6,0,14.4c0,6.5,0,13,0,19.4c0,1.5,0,1.5,1.4,1.5c4.4,0,8.7,0,13.1,0
			c0.9,0,1.3,0.2,1.2,1.2c-0.1,0.5,0,1.1,0,1.7c0.1,0.9-0.3,1.1-1.1,1.1c-5.9,0-11.8,0-17.7,0c-0.4,0-0.7-0.1-1.1-0.2
			c0,6.6,0,13.2,0,19.8c85.6,0,171.3,0,256.9,0C-752-198.9-752-220.1-752-241.3z M-1005.2-185.9c-1.7,0.3-1.9,1.6-1.9,3
			c0,0.9,0,1.7,0,2.6c-0.1,0-0.2,0.1-0.3,0.1c-0.2-0.2-0.4-0.4-0.5-0.6c0-1.6,0-3.1,0-4.7c0-0.2,0.2-0.4,0.3-0.6
			c0.2,0.1,0.5,0.3,0.7,0.4c1.1-0.8,1.1-0.8,1.9-0.4C-1005.2-186.1-1005.2-185.9-1005.2-185.9z M-995.2-180.8
			c1.3,0.2,2.1-0.7,3.1-1.4c0.1,1.5-1.7,2.2-2.9,2.1c-1.6-0.1-2.9-1.4-3-3c-0.1-1.7,1.2-3.2,2.7-3.4c1.8-0.2,3.1,0.9,3.6,3.2
			c-1.8,0-3.6,0-5.3,0C-997.2-182-996.5-181.1-995.2-180.8z M-984.2-183.1c1-0.7,2.4-0.6,3,0C-982-183.1-983-183.1-984.2-183.1z
			 M-970.8-185.9c-1.1,0.2-1,1-1,1.8c0,1,0,1.9,0,2.9c0,0.3-0.1,0.6-0.1,0.9c-0.1,0-0.2,0-0.3,0c-0.1-0.2-0.2-0.5-0.2-0.7
			c0-0.9,0-1.8,0-2.7s0.3-1.9-1.2-2.5c1.9-0.3,0.6-1.8,1.5-2.5c0.9,0.6-0.5,2.5,1.4,2.3C-970.8-186.1-970.8-185.9-970.8-185.9z
			 M-959.8-180.1c-1.8,0-3.2-1.4-3.2-3.2c0-1.8,1.4-3.3,3.2-3.3c1.6,0,3.2,1.6,3.2,3.2C-956.7-181.5-958.2-180.1-959.8-180.1z
			 M-951.2-197.2c-2.9-0.1-2.5,0.4-2.6-2.6c0-0.7,0-1.3-0.1-2.1c-4.3,4.5-9.4,6.4-15.5,5.1c-3.6-0.8-6.3-2.8-8.6-5.7
			c-4.3-5.4-4.3-13.9-0.1-19.1c3.1-3.8,7-6,11.9-6.1c5-0.1,8.9,1.9,12,5.9c0.1-0.1,0.2-0.1,0.3-0.2c0-1.2,0-2.4,0-3.6
			c0-1,0.3-1.4,1.3-1.3c2.5,0,2.5,0,2.5,2.5c0,8.7,0,17.3,0,26C-950-197.6-950.2-197.2-951.2-197.2z M-943.5-182.1
			c-0.1,1-0.7,1.7-1.6,1.9c-1.1,0.3-2.1,0.2-2.9-0.8c-0.7-0.8-0.8-4.3,0-5.3c0.1,0.3,0.1,0.6,0.2,0.9c0,0.9,0,1.8,0,2.7
			c0,1.2,0.6,1.8,1.8,1.8c1.3,0,1.9-0.5,1.9-1.7c0-0.9,0-1.7,0-2.6c0-0.4,0.1-0.7,0.2-1c0.1,0,0.2,0,0.3,0c0.1,0.2,0.3,0.5,0.3,0.7
			C-943.5-184.4-943.5-183.3-943.5-182.1z M-934-181.8c1.5,1.6,3,1.1,4.6,0c0.1,1-0.7,1.6-2.2,1.7c-1.9,0.1-3.6-1.3-3.6-3.1
			c0-1.8,1.6-3.4,3.5-3.3c1.4,0,2.4,0.8,2.4,1.7c-1.6-1.1-3.3-1.7-4.7,0.1C-934.8-183.9-934.8-182.5-934-181.8z M-924-223.8
			c-0.8-0.1-0.9,0.2-0.9,0.9c0,8,0,16.1,0,24.1c0,1.5,0,1.6-1.5,1.5c-2.6,0-2.2,0.3-2.2-2.3c0-7.8,0-15.6,0-23.4c0-0.8-0.3-1-1-0.9
			c-0.7,0-1.5,0-2.2,0.1c-0.6,0-0.8-0.3-0.9-0.9c-0.1-2.3-0.2-2.3,2.2-2.3c0.2,0,0.4,0,0.6,0c0.9,0.1,1.2-0.2,1.2-1.2
			c0-1.9,0.1-3.7,0.1-5.6c0-3.6,2.4-5.5,5.9-5.5c1.3,0,2.5,0.3,3.8,0.6c0.2,0,0.6,0.4,0.6,0.6c0.1,1,0,2,0,3
			c-1.4-0.2-2.6-0.6-3.7-0.6c-1.9-0.1-2.8,1-2.9,2.9c0,1.7,0,3.3,0,5c0,0.7,0.2,1,1,1c1.4,0,2.8,0,4.3,0c0.7,0,1.1,0.2,1.1,1
			c0,2.5,0.2,2.3-2.2,2.3C-922-223.8-923-223.8-924-223.8z M-915.8-180.7c0,0.1-0.2,0.3-0.3,0.4c-0.1,0-0.2-0.1-0.4-0.1
			c0-1.1,0-2.1,0-3.2c0-1.5-0.6-2.4-1.7-2.4c-1.1,0-2.2,1.3-2.2,2.5c0,1,0,2,0,3c-0.1,0-0.3,0.1-0.4,0.1c-0.1-0.3-0.4-0.5-0.4-0.8
			c0-2.3,0-4.6,0-6.8c0-0.3,0.3-0.5,0.4-0.8c0.1,0,0.3,0.1,0.4,0.1c0,1,0,1.9,0,3c0.5-0.3,0.9-0.4,1.1-0.6c1.1-0.9,3-0.1,3.2,1.3
			C-915.7-183.5-915.8-182.1-915.8-180.7z M-892.8-178.3c-0.1,0.1-0.4,0.2-0.6,0.3c-0.1-0.3-0.1-0.3-0.1-0.3
			c1.5-1.9,0.5-3.7-0.4-5.4c-0.4-0.8-0.7-1.6-0.9-2.5c1.4,1.1,1.5,3,2.7,4.5c0.8-1.6,1.5-3.1,2.2-4.6c0.2,0.1,0.3,0.2,0.5,0.2
			C-890.5-183.6-891.7-181-892.8-178.3z M-883.3-199.8c0-0.7,0-1.4,0-2.1c0-0.1-0.1-0.1-0.3-0.3c-4.1,4.7-9.2,6.5-15.3,5.2
			c-3.7-0.8-6.7-3-8.9-6.1c-4.1-5.6-4.1-14,1.1-19.7c3.2-3.5,7.1-5.2,11.8-5.1s8.4,2.2,11.3,5.9c0.1-0.1,0.2-0.1,0.3-0.2
			c0-1.3,0-2.6,0-3.9c0-0.7,0.2-1,0.9-1c3.4,0.1,2.8-0.5,2.8,2.7c0,8.6,0,17.3,0,25.9c0,0.9-0.2,1.3-1.2,1.3
			C-883.3-197.3-883.3-197.2-883.3-199.8z M-878.8-180.1c-1.7-0.1-3.2-1.5-3.2-3.2c0-1.8,1.6-3.3,3.4-3.3c1.6,0.2,3.1,1.3,3.1,3.4
			C-875.7-181.5-877.2-180-878.8-180.1z M-862.3-182.8c-0.1,1.8-1.1,2.7-2.7,2.7c-1.5,0-2.6-1.1-2.7-2.7c0-1.1,0-2.3,0-3.4
			c0.2,0,0.3,0,0.5,0c0.1,0.3,0.2,0.6,0.2,0.9c0,0.8,0,1.5,0,2.3c0,1.5,0.6,2.2,2,2.2s1.9-0.5,2-2.2c0-0.8,0-1.5,0-2.3
			c0-0.3,0.1-0.7,0.2-1c0.1,0,0.2,0,0.3,0c0.1,0.3,0.2,0.5,0.2,0.8C-862.3-184.6-862.3-183.7-862.3-182.8z M-856.2-223.9
			c-3.2-0.6-5.5,0.6-7,3.5c-1.3,2.5-1.6,5.1-1.7,7.8c-0.1,4.7-0.1,9.4-0.1,14c0,1-0.3,1.3-1.3,1.3c-2.6-0.1-2.6,0-2.6-2.6
			c0-8.7,0-17.4,0-26.1c0-0.9,0.3-1.2,1.1-1.2c2.8,0,2.8,0,2.8,2.7c0,0.3,0,0.7,0,1c0.1,0,0.2,0.1,0.3,0.1c0.4-0.5,0.9-1,1.3-1.4
			c1.3-1.4,2.8-2.5,4.6-3c1.7-0.4,3.3-0.2,4.8,0.9c-0.6,0.9-1.1,1.8-1.6,2.6C-855.5-223.9-856-223.8-856.2-223.9z M-851.8-185.8
			c-1.2,0.3-1.6,1.1-1.7,2.2c0,0.8,0,1.7,0,2.5c0,0.3-0.1,0.6-0.2,1c-0.6-0.8-0.6-5.1-0.1-6.5c0.2,0.4,0.3,0.6,0.4,0.8
			c0.7,0,1.1-1.2,2.2-0.3C-851.7-186-851.8-185.9-851.8-185.8z M-835-224.1c-0.1,0.2-0.5,0.3-0.8,0.3c-2.9-0.6-4.9,0.3-6.5,2.7
			c-1.6,2.4-2,5.1-2.1,7.8c-0.1,4.9-0.1,9.8-0.1,14.6c0,1.5,0,1.5-1.5,1.4c-2.8,0-2.4,0.3-2.4-2.4c0-8.8,0-17.7,0-26.5
			c0-0.7,0.2-0.9,0.9-0.9s1.5,0,2.2,0s0.8,0.3,0.8,0.9c0,0.9,0,1.8,0,2.8c0.1,0.1,0.2,0.1,0.3,0.2c0.4-0.5,0.9-0.9,1.3-1.4
			c1.7-1.8,3.6-3.1,6.2-3.2c1.2,0,2.3,0.3,3.3,1.1C-834-225.8-834.5-225-835-224.1z M-825.8-180.9c-1.3,1.1-2.6,1-4.2-0.2
			c-0.3,0.2-0.5,0.4-0.8,0.6c-0.1-0.4-0.3-0.7-0.3-1.1c0-2.1,0-4.2,0-6.3c0-0.3,0.2-0.6,0.3-0.9c0.2,0,0.3,0.1,0.5,0.1
			c0,0.9,0,1.9,0,3c1.2-0.5,2.2-1.5,3.5-0.7c0.7,0.4,1.4,0.9,1.7,1.5C-824.2-183.5-824.7-181.8-825.8-180.9z M-827.7-209.3
			c-1.3-7.7,2.7-14.8,9.3-17.5c3.5-1.4,7.2-1.5,10.8-0.3c5.7,1.8,9,5.9,10.3,11.7c0.2,0.9,0.3,1.8,0.3,2.7c0,0.3-0.4,0.6-0.7,0.8
			c-0.2,0.1-0.5,0-0.7,0c-8.2,0-16.4,0-24.5,0c-0.9,0-1.2,0.2-1.1,1.2c0.6,4.7,2.8,8.2,7.3,10.1c4.1,1.7,10.1,0.4,13.1-3
			c0.7-0.8,1.3-1.7,2-2.5c0.4-0.5,0.7-0.9,1.4-0.4s1.4,0.8,2.2,1.2c-1.1,2.3-2.5,4.2-4.4,5.6c-3.6,2.8-7.7,3.5-12.1,3.1
			C-822-197.3-826.7-203.5-827.7-209.3z M-811.5-183.3c-1.3,0-2.6,0-3.8,0c-1,0-1.1,0.3-0.7,1.2c0.7,1.4,2.6,1.8,3.8,0.7
			c0.3-0.2,0.4-0.6,0.6-0.9c0.1,0.1,0.3,0.2,0.4,0.3c0.2,0.9-0.6,1.2-1.1,1.6c-1,0.6-2.8,0.4-3.6-0.4c-1-0.9-1.4-2.4-0.9-3.6
			c0.6-1.4,1.8-2.2,3.1-2.1c1.2,0.1,2.7,1.3,2.9,2.5C-810.5-183.4-810.8-183.3-811.5-183.3z M-796.5-181.3c0,0.3-0.2,0.7-0.3,1
			c-0.2-0.2-0.5-0.4-0.7-0.6c-1.8,1.2-3.3,1.2-4.5-0.2c-1.1-1.3-1.2-3-0.1-4.2c1.1-1.2,2.3-1.8,4.4-0.3c0.4-0.2,0.7-0.3,0.9-0.4
			c0.1,0.3,0.2,0.6,0.2,0.9C-796.5-184-796.3-182.7-796.5-181.3z M-783-182c-0.3,1.4-1.2,2-2.6,1.9c-1.4-0.1-2.2-0.6-2.5-2.1
			c-0.2-1.3-0.1-2.6-0.1-3.9c0-0.1,0.2-0.2,0.4-0.5c0.1,0.5,0.2,0.8,0.2,1.1c0,0.8,0,1.6,0,2.4c0,1.6,0.6,2.2,2,2.2
			c1.3,0,1.9-0.6,1.9-2.1c0-0.8,0-1.5,0-2.3c0-0.3,0.1-0.7,0.2-1.2c0.3,0.2,0.4,0.3,0.4,0.4C-783-184.7-782.8-183.3-783-182z
			 M-775.2-223.9c-2-0.7-3.7,0-5.1,1.4c-2.4,2.2-3.2,5.1-3.2,8.2c-0.2,5.3-0.2,10.5-0.2,15.8c0,1.4,0,1.4-1.4,1.4
			c-2.5,0-2.5,0-2.5-2.5c0-8.7,0-17.4,0-26.1c0-1,0.3-1.3,1.2-1.2c3.2,0.1,2.6-0.4,2.7,2.7c0,0.4,0,0.8,0,1.2c0.1,0,0.2,0.1,0.3,0.1
			c0.3-0.3,0.5-0.6,0.8-0.9c1.4-1.8,3.1-3.1,5.3-3.7c1.7-0.4,3.3-0.2,4.8,0.9c-0.6,0.9-1,1.8-1.6,2.5
			C-774.5-224-775-223.8-775.2-223.9z M-772-186c-1.1,0.3-1.1,1.1-1.1,2.1c0.1,0.9,0,1.8,0,2.7c0,0.3-0.1,0.6-0.2,0.9
			c-0.1,0-0.2,0-0.3,0c-0.1-0.3-0.2-0.6-0.2-0.9c0-1.1,0-2.1,0-3.2c0-0.5,0.2-1.1-0.6-1.3c-0.1,0-0.1-0.3-0.1-0.5
			c1.1-0.2,0.6-1.1,0.7-1.7c0-0.2,0.2-0.4,0.3-0.7c0.9,0.7-0.4,2.6,1.5,2.5C-772-186.1-772-186-772-186z M-762.7-178.2
			c0,0.1-0.3,0-0.5,0.1c0-0.2-0.1-0.3,0-0.4c1.2-1.6,0.8-3-0.1-4.6c-0.6-1-0.9-2.1-1.2-3.2c1.4,1.1,1.5,3.1,2.6,4.5
			c1.2-1.3,1.2-3.3,2.4-4.5c0.1,0.1,0.3,0.1,0.4,0.2C-760.2-183.5-761.3-180.8-762.7-178.2z M-753.8-224.2c-0.2,0.2-0.6,0.4-0.8,0.3
			c-2.3-0.9-4.1,0.1-5.6,1.7c-2.2,2.3-2.8,5.2-2.9,8.2c-0.1,5.2-0.2,10.3-0.2,15.5c0,1-0.3,1.3-1.3,1.3c-2.7,0-2.7,0-2.7-2.7
			c0-8.6,0-17.1,0-25.7c0-1.4,0-1.5,1.4-1.4c3.1,0,2.4-0.4,2.5,2.7c0,0.3,0,0.7,0,1c0,0,0.1,0.1,0.2,0.3c2.1-2.8,4.5-5.1,8.4-4.7
			c0.8,0.1,1.6,0.5,2.6,0.9C-752.8-225.8-753.3-225-753.8-224.2z"/>
		<path d="M-1009-237.4c1.2-0.1,2.4-0.2,3.6-0.2c0.2,0,0.5,0.7,0.6,1.1c0,4.8,0,9.6,0,14.4c0,6.5,0,13,0,19.4c0,1.5,0,1.5,1.4,1.5
			c4.4,0,8.7,0,13.1,0c0.9,0,1.3,0.2,1.2,1.2c-0.1,0.5,0,1.1,0,1.7c0.1,0.9-0.3,1.1-1.1,1.1c-5.9,0-11.8,0-17.7,0
			c-0.4,0-0.7-0.1-1.1-0.2C-1009-210.7-1009-224.1-1009-237.4z"/>
		<path d="M-957.5-241.3c-0.1,0.3-0.2,0.7-0.4,1c-2.2,2.4-4.5,4.7-6.8,7c-0.3,0.3-0.8,0.5-1.2,0.5c-0.9,0.1-1.7,0-2.9,0
			c1.3-1.8,2.4-3.4,3.5-4.9c0.8-1.2,1.6-2.4,2.4-3.6C-961.2-241.3-959.3-241.3-957.5-241.3z"/>
		<path d="M-798-205.4c-1.1,2.3-2.5,4.2-4.4,5.6c-3.6,2.8-7.7,3.5-12.1,3.1c-7.5-0.7-12.2-6.9-13.1-12.6c-1.3-7.7,2.7-14.8,9.3-17.5
			c3.5-1.4,7.2-1.5,10.8-0.3c5.7,1.8,9,5.9,10.3,11.7c0.2,0.9,0.3,1.8,0.3,2.7c0,0.3-0.4,0.6-0.7,0.8c-0.2,0.1-0.5,0-0.7,0
			c-8.2,0-16.4,0-24.5,0c-0.9,0-1.2,0.2-1.1,1.2c0.6,4.7,2.8,8.2,7.3,10.1c4.1,1.7,10.1,0.4,13.1-3c0.7-0.8,1.3-1.7,2-2.5
			c0.4-0.5,0.7-0.9,1.4-0.4C-799.5-206.1-798.8-205.8-798-205.4z M-801.2-215.3c0.2-4-5.2-8.6-10-8.9c-7-0.4-11.3,4.1-12.2,8.9
			C-816-215.3-808.7-215.3-801.2-215.3z"/>
		<path d="M-953.8-222.2c0-1.2,0-2.4,0-3.6c0-1,0.3-1.4,1.3-1.3c2.5,0,2.5,0,2.5,2.5c0,8.7,0,17.3,0,26c0,1-0.2,1.4-1.3,1.3
			c-2.9-0.1-2.5,0.4-2.6-2.6c0-0.7,0-1.3-0.1-2.1c-4.3,4.5-9.4,6.4-15.5,5.1c-3.6-0.8-6.3-2.8-8.6-5.7c-4.3-5.4-4.3-13.9-0.1-19.1
			c3.1-3.8,7-6,11.9-6.1c5-0.1,8.9,1.9,12,5.9C-954-222-953.8-222.1-953.8-222.2z M-965.3-200c6.8,0,12-5.2,12-12.1
			s-5.2-12.1-12-12.1c-6.6,0-11.9,5.3-11.9,12C-977.3-205.5-972-200-965.3-200z"/>
		<path d="M-883.3-222.2c0-1.3,0-2.6,0-3.9c0-0.7,0.2-1,0.9-1c3.4,0.1,2.8-0.5,2.8,2.7c0,8.6,0,17.3,0,25.9c0,0.9-0.2,1.3-1.2,1.3
			c-2.5,0-2.5,0-2.5-2.5c0-0.7,0-1.4,0-2.1c0-0.1-0.1-0.1-0.3-0.3c-4.1,4.7-9.2,6.5-15.3,5.2c-3.7-0.8-6.7-3-8.9-6.1
			c-4.1-5.6-4.1-14,1.1-19.7c3.2-3.5,7.1-5.2,11.8-5.1s8.4,2.2,11.3,5.9C-883.5-222-883.5-222.1-883.3-222.2z M-883.2-212
			c0.2-7.1-5.4-12.1-11.4-12.3c-7.3-0.2-12.4,5.5-12.5,11.9c-0.1,6.6,5.3,12.2,11.5,12.3C-888.3-199.9-883.2-204.9-883.2-212z"/>
		<path d="M-918.3-235.2c-1.4-0.2-2.6-0.6-3.7-0.6c-1.9-0.1-2.8,1-2.9,2.9c0,1.7,0,3.3,0,5c0,0.7,0.2,1,1,1c1.4,0,2.8,0,4.3,0
			c0.7,0,1.1,0.2,1.1,1c0,2.5,0.2,2.3-2.2,2.3c-1,0-2.1,0-3.1-0.1c-0.8-0.1-0.9,0.2-0.9,0.9c0,8,0,16.1,0,24.1c0,1.5,0,1.6-1.5,1.5
			c-2.6,0-2.2,0.3-2.2-2.3c0-7.8,0-15.6,0-23.4c0-0.8-0.3-1-1-0.9c-0.7,0-1.5,0-2.2,0.1c-0.6,0-0.8-0.3-0.9-0.9
			c-0.1-2.3-0.2-2.3,2.2-2.3c0.2,0,0.4,0,0.6,0c0.9,0.1,1.2-0.2,1.2-1.2c0-1.9,0.1-3.7,0.1-5.6c0-3.6,2.4-5.5,5.9-5.5
			c1.3,0,2.5,0.3,3.8,0.6c0.2,0,0.6,0.4,0.6,0.6C-918.3-237.2-918.3-236.2-918.3-235.2z"/>
		<path d="M-752.2-226.9c-0.7,1.1-1.1,1.9-1.7,2.7c-0.2,0.2-0.6,0.4-0.8,0.3c-2.3-0.9-4.1,0.1-5.6,1.7c-2.2,2.3-2.8,5.2-2.9,8.2
			c-0.1,5.2-0.2,10.3-0.2,15.5c0,1-0.3,1.3-1.3,1.3c-2.7,0-2.7,0-2.7-2.7c0-8.6,0-17.1,0-25.7c0-1.4,0-1.5,1.4-1.4
			c3.1,0,2.4-0.4,2.5,2.7c0,0.3,0,0.7,0,1c0,0,0.1,0.1,0.2,0.3c2.1-2.8,4.5-5.1,8.4-4.7C-754-227.7-753.2-227.2-752.2-226.9z"/>
		<path d="M-772.8-226.7c-0.6,0.9-1,1.8-1.6,2.5c-0.2,0.2-0.7,0.4-0.9,0.3c-2-0.7-3.7,0-5.1,1.4c-2.4,2.2-3.2,5.1-3.2,8.2
			c-0.2,5.3-0.2,10.5-0.2,15.8c0,1.4,0,1.4-1.4,1.4c-2.5,0-2.5,0-2.5-2.5c0-8.7,0-17.4,0-26.1c0-1,0.3-1.3,1.2-1.2
			c3.2,0.1,2.6-0.4,2.7,2.7c0,0.4,0,0.8,0,1.2c0.1,0,0.2,0.1,0.3,0.1c0.3-0.3,0.5-0.6,0.8-0.9c1.4-1.8,3.1-3.1,5.3-3.7
			C-775.8-228.1-774.2-227.8-772.8-226.7z"/>
		<path d="M-864.7-223.2c0.4-0.5,0.9-1,1.3-1.4c1.3-1.4,2.8-2.5,4.6-3c1.7-0.4,3.3-0.2,4.8,0.9c-0.6,0.9-1.1,1.8-1.6,2.6
			c-0.1,0.2-0.5,0.3-0.7,0.2c-3.2-0.6-5.5,0.6-7,3.5c-1.3,2.5-1.6,5.1-1.7,7.8c-0.1,4.7-0.1,9.4-0.1,14c0,1-0.3,1.3-1.3,1.3
			c-2.6-0.1-2.6,0-2.6-2.6c0-8.7,0-17.4,0-26.1c0-0.9,0.3-1.2,1.1-1.2c2.8,0,2.8,0,2.8,2.7c0,0.3,0,0.7,0,1
			C-864.8-223.3-864.8-223.3-864.7-223.2z"/>
		<path d="M-844.2-223.2c0.4-0.5,0.9-0.9,1.3-1.4c1.7-1.8,3.6-3.1,6.2-3.2c1.2,0,2.3,0.3,3.3,1.1c-0.6,0.9-1.1,1.8-1.6,2.6
			c-0.1,0.2-0.5,0.3-0.8,0.3c-2.9-0.6-4.9,0.3-6.5,2.7c-1.6,2.4-2,5.1-2.1,7.8c-0.1,4.9-0.1,9.8-0.1,14.6c0,1.5,0,1.5-1.5,1.4
			c-2.8,0-2.4,0.3-2.4-2.4c0-8.8,0-17.7,0-26.5c0-0.7,0.2-0.9,0.9-0.9s1.5,0,2.2,0s0.8,0.3,0.8,0.9c0,0.9,0,1.8,0,2.8
			C-844.5-223.3-844.2-223.3-844.2-223.2z"/>
		<path d="M-830.2-188.6c0,0.9,0,1.9,0,3c1.2-0.5,2.2-1.5,3.5-0.7c0.7,0.4,1.4,0.9,1.7,1.5c0.8,1.3,0.4,3-0.7,3.9
			c-1.3,1.1-2.6,1-4.2-0.2c-0.3,0.2-0.5,0.4-0.8,0.6c-0.1-0.4-0.3-0.7-0.3-1.1c0-2.1,0-4.2,0-6.3c0-0.3,0.2-0.6,0.3-0.9
			C-830.5-188.7-830.5-188.6-830.2-188.6z M-828-180.8c1.5,0,2.6-1,2.6-2.4c0-1.3-1.2-2.6-2.4-2.6c-1.3,0-2.5,1.1-2.5,2.5
			C-830.3-181.9-829.5-180.9-828-180.8z"/>
		<path d="M-811-182c0.2,0.9-0.6,1.2-1.1,1.6c-1,0.6-2.8,0.4-3.6-0.4c-1-0.9-1.4-2.4-0.9-3.6c0.6-1.4,1.8-2.2,3.1-2.1
			c1.2,0.1,2.7,1.3,2.9,2.5c0.1,0.7-0.2,0.8-0.8,0.8c-1.3,0-2.6,0-3.8,0c-1,0-1.1,0.3-0.7,1.2c0.7,1.4,2.6,1.8,3.8,0.7
			c0.3-0.2,0.4-0.6,0.6-0.9C-811.3-182.2-811.2-182.1-811-182z M-815.8-184.1c1.5,0,2.8,0,4.2,0c-0.3-1.2-1.2-1.6-2.1-1.6
			C-814.8-185.7-815.5-185.2-815.8-184.1z"/>
		<path d="M-991.5-183.4c-1.8,0-3.6,0-5.3,0c-0.4,1.4,0.4,2.3,1.7,2.6c1.3,0.2,2.1-0.7,3.1-1.4c0.1,1.5-1.7,2.2-2.9,2.1
			c-1.6-0.1-2.9-1.4-3-3c-0.1-1.7,1.2-3.2,2.7-3.4C-993.3-186.7-992-185.6-991.5-183.4z M-992.5-184c-0.4-1.1-1.4-1.9-2.4-1.8
			c-1,0.1-1.8,0.7-2.1,1.8C-995.5-184-994-184-992.5-184z"/>
		<path d="M-797.5-185.7c0.4-0.2,0.7-0.3,0.9-0.4c0.1,0.3,0.2,0.6,0.2,0.9c0,1.3,0,2.6,0,3.9c0,0.3-0.2,0.7-0.3,1
			c-0.2-0.2-0.5-0.4-0.7-0.6c-1.8,1.2-3.3,1.2-4.5-0.2c-1.1-1.3-1.2-3-0.1-4.2C-800.8-186.5-799.8-187.2-797.5-185.7z M-797.2-183.2
			c0-1.4-1.1-2.6-2.5-2.7c-1.3,0-2.5,1.2-2.5,2.5c0,1.4,1,2.5,2.4,2.5C-798.2-180.7-797.2-181.7-797.2-183.2z"/>
		<path d="M-916.5-180.4c0-1.1,0-2.1,0-3.2c0-1.5-0.6-2.4-1.7-2.4c-1.1,0-2.2,1.3-2.2,2.5c0,1,0,2,0,3c-0.1,0-0.3,0.1-0.4,0.1
			c-0.1-0.3-0.4-0.5-0.4-0.8c0-2.3,0-4.6,0-6.8c0-0.3,0.3-0.5,0.4-0.8c0.1,0,0.3,0.1,0.4,0.1c0,1,0,1.9,0,3c0.5-0.3,0.9-0.4,1.1-0.6
			c1.1-0.9,3-0.1,3.2,1.3s0.1,2.8,0.1,4.1c0,0.1-0.2,0.3-0.3,0.4C-916.2-180.3-916.2-180.3-916.5-180.4z"/>
		<path d="M-878.8-186.5c1.6,0.2,3.1,1.3,3.1,3.4c0,1.7-1.5,3.1-3.2,3.1c-1.7-0.1-3.2-1.5-3.2-3.2C-882-185-880.5-186.6-878.8-186.5
			z M-876.5-183.3c0-1.5-1-2.6-2.4-2.6c-1.3,0-2.5,1.3-2.5,2.6c0,1.4,1.1,2.4,2.6,2.4C-877.2-180.8-876.5-181.7-876.5-183.3z"/>
		<path d="M-963-183.2c0-1.8,1.4-3.3,3.2-3.3c1.6,0,3.2,1.6,3.2,3.2c0,1.8-1.4,3.3-3.2,3.3C-961.7-180.1-963-181.5-963-183.2z
			 M-959.8-180.9c1.5,0,2.5-1,2.5-2.4c0-1.3-1.3-2.6-2.5-2.6c-1.3,0-2.4,1.2-2.4,2.6C-962.2-181.8-961.3-180.9-959.8-180.9z"/>
		<path d="M-929.5-181.8c0.1,1-0.7,1.6-2.2,1.7c-1.9,0.1-3.6-1.3-3.6-3.1c0-1.8,1.6-3.4,3.5-3.3c1.4,0,2.4,0.8,2.4,1.7
			c-1.6-1.1-3.3-1.7-4.7,0.1c-0.6,0.8-0.6,2.1,0.1,2.9C-932.7-180.1-931-180.7-929.5-181.8z"/>
		<path d="M-787.8-186.5c0.1,0.5,0.2,0.8,0.2,1.1c0,0.8,0,1.6,0,2.4c0,1.6,0.6,2.2,2,2.2c1.3,0,1.9-0.6,1.9-2.1c0-0.8,0-1.5,0-2.3
			c0-0.3,0.1-0.7,0.2-1.2c0.3,0.2,0.4,0.3,0.4,0.4c0,1.4,0.1,2.8-0.1,4.1c-0.3,1.4-1.2,2-2.6,1.9c-1.4-0.1-2.2-0.6-2.5-2.1
			c-0.2-1.3-0.1-2.6-0.1-3.9C-788.2-186.2-788-186.3-787.8-186.5z"/>
		<path d="M-867.2-186.3c0.1,0.3,0.2,0.6,0.2,0.9c0,0.8,0,1.5,0,2.3c0,1.5,0.6,2.2,2,2.2s1.9-0.5,2-2.2c0-0.8,0-1.5,0-2.3
			c0-0.3,0.1-0.7,0.2-1c0.1,0,0.2,0,0.3,0c0.1,0.3,0.2,0.5,0.2,0.8c0,0.9,0,1.8,0,2.7c-0.1,1.8-1.1,2.7-2.7,2.7
			c-1.5,0-2.6-1.1-2.7-2.7c0-1.1,0-2.3,0-3.4C-867.5-186.3-867.3-186.3-867.2-186.3z"/>
		<path d="M-948.2-186.3c0.1,0.3,0.1,0.6,0.2,0.9c0,0.9,0,1.8,0,2.7c0,1.2,0.6,1.8,1.8,1.8c1.3,0,1.9-0.5,1.9-1.7c0-0.9,0-1.7,0-2.6
			c0-0.4,0.1-0.7,0.2-1c0.1,0,0.2,0,0.3,0c0.1,0.2,0.3,0.5,0.3,0.7c0,1.1,0,2.3-0.1,3.4c-0.1,1-0.7,1.7-1.7,1.9
			c-1.1,0.3-2.1,0.2-2.9-0.8C-948.8-181.8-949-185.2-948.2-186.3z"/>
		<path d="M-893.5-178c-0.1-0.3-0.1-0.3-0.1-0.3c1.5-1.9,0.5-3.7-0.4-5.4c-0.4-0.8-0.7-1.6-0.9-2.5c1.4,1.1,1.5,3,2.7,4.5
			c0.8-1.6,1.5-3.1,2.2-4.6c0.2,0.1,0.3,0.2,0.5,0.2c-1.1,2.6-2.3,5.2-3.4,7.8C-893-178.2-893.2-178.2-893.5-178z"/>
		<path d="M-759-186.1c-1.2,2.7-2.4,5.3-3.6,8c0,0.1-0.3,0-0.5,0.1c0-0.2-0.1-0.3,0-0.4c1.2-1.6,0.8-3-0.1-4.6
			c-0.6-1-0.9-2.1-1.2-3.2c1.4,1.1,1.5,3.1,2.6,4.5c1.2-1.3,1.2-3.3,2.4-4.5C-759.2-186.3-759.2-186.2-759-186.1z"/>
		<path d="M-773.5-188.8c0.9,0.7-0.4,2.6,1.5,2.5c0,0.2,0,0.3,0,0.3c-1.1,0.3-1.1,1.1-1.1,2.1c0.1,0.9,0,1.8,0,2.7
			c0,0.3-0.1,0.6-0.2,0.9c-0.1,0-0.2,0-0.3,0c-0.1-0.3-0.2-0.6-0.2-0.9c0-1.1,0-2.1,0-3.2c0-0.5,0.2-1.1-0.6-1.3
			c-0.1,0-0.1-0.3-0.1-0.5c1.1-0.2,0.6-1.1,0.7-1.7C-773.8-188.3-773.7-188.4-773.5-188.8z"/>
		<path d="M-973.7-186.2c1.9-0.3,0.6-1.8,1.5-2.5c0.9,0.6-0.5,2.5,1.4,2.3c-0.1,0.2-0.1,0.4-0.1,0.4c-1.1,0.2-1,1-1,1.8
			c0,1,0,1.9,0,2.9c0,0.3-0.1,0.6-0.1,0.9c-0.1,0-0.2,0-0.3,0c-0.1-0.2-0.2-0.5-0.2-0.7c0-0.9,0-1.8,0-2.7
			C-972.5-184.6-972.2-185.6-973.7-186.2z"/>
		<path d="M-851.3-186.2c-0.3,0.2-0.4,0.3-0.5,0.3c-1.2,0.3-1.6,1.1-1.7,2.2c0,0.8,0,1.7,0,2.5c0,0.3-0.1,0.6-0.2,1
			c-0.6-0.8-0.6-5.1-0.1-6.5c0.2,0.4,0.3,0.6,0.4,0.8C-852.8-185.8-852.3-187-851.3-186.2z"/>
		<path d="M-1007.5-180.3c-0.2-0.2-0.4-0.4-0.5-0.6c0-1.6,0-3.1,0-4.7c0-0.2,0.2-0.4,0.3-0.6c0.2,0.1,0.5,0.3,0.7,0.4
			c1.1-0.8,1.1-0.8,1.9-0.4c-0.1,0.1-0.2,0.3-0.3,0.3c-1.7,0.3-1.9,1.6-1.9,3c0,0.9,0,1.7,0,2.6
			C-1007.2-180.3-1007.3-180.3-1007.5-180.3z"/>
		<path d="M-984.2-183.1c1-0.7,2.4-0.6,3,0C-982-183.1-983-183.1-984.2-183.1z"/>
		<path class="st2" d="M-992.5-184c-1.6,0-3,0-4.5,0c0.3-1.1,1.1-1.8,2.1-1.8C-993.8-185.9-993-185.2-992.5-184z"/>
	</g>
</g>
<g>
	<path class="st2" d="M3.7,93.5c-1,0.1-1,0.9-1,1.7c0,0.5,0,1,0,1.5c0,0-0.1,0-0.1,0.1c-0.1-0.1-0.2-0.2-0.2-0.3c0-0.9,0-1.8,0-2.6
		c0-0.1,0.1-0.2,0.1-0.3c0.1,0.1,0.2,0.1,0.5,0.2c0.6-0.6,0.6-0.6,0.9-0.3C3.8,93.5,3.8,93.5,3.7,93.5z M9.6,96.5
		c0.8,0.1,1.3-0.3,1.7-0.8c0,0.8-1,1.3-1.6,1.3c-0.9,0-1.6-0.8-1.7-1.7c0-0.9,0.7-1.8,1.6-1.9c1-0.1,1.8,0.6,2.1,1.8c-1,0-2.1,0-3,0
		C8.3,95.8,8.7,96.4,9.6,96.5z M15.9,95.2c0.6-0.3,1.4-0.3,1.7,0C17,95.2,16.4,95.2,15.9,95.2z M23.4,93.6c-0.7,0.1-0.6,0.6-0.6,1
		c0,0.6,0,1.1,0,1.6c0,0.2,0,0.3-0.1,0.6c-0.1,0-0.1,0-0.2,0c0-0.1-0.1-0.2-0.1-0.5c0-0.5,0-1,0-1.5c0-0.5,0.1-1-0.7-1.4
		c1-0.1,0.3-1,0.8-1.4c0.5,0.3-0.3,1.4,0.8,1.4C23.4,93.4,23.4,93.6,23.4,93.6z M29.6,96.9c-1,0-1.8-0.8-1.8-1.8
		c0-1,0.8-1.8,1.8-1.8c0.9,0,1.8,0.9,1.8,1.8C31.6,96,30.6,96.9,29.6,96.9z M34.7,87.1c-1.7-0.1-1.5,0.2-1.5-1.5
		c0-0.3,0-0.8-0.1-1.3c-2.4,2.5-5.4,3.7-8.8,2.9c-2.1-0.5-3.7-1.6-4.9-3.2c-2.4-3.1-2.4-7.9,0-10.9c1.7-2.2,4-3.4,6.9-3.6
		c2.9-0.1,5,1.1,6.9,3.3l0.1-0.1c0-0.7,0-1.4,0-2.1c0-0.6,0.1-0.8,0.7-0.8c1.5,0,1.5,0,1.5,1.5c0,4.9,0,9.9,0,14.9
		C35.3,86.9,35.2,87.1,34.7,87.1z M39,95.7c0,0.6-0.3,0.9-0.9,1s-1.3,0.1-1.7-0.5c-0.3-0.5-0.5-2.4,0-3c0,0.2,0.1,0.3,0.1,0.6
		c0,0.5,0,1,0,1.5c0,0.7,0.3,1,1,1c0.8,0,1-0.2,1.1-1c0-0.5,0-1,0-1.5c0-0.2,0.1-0.3,0.1-0.6h0.1c0.1,0.1,0.2,0.2,0.2,0.5
		C39.1,94.4,39,95.1,39,95.7z M44.4,95.9c0.8,0.9,1.7,0.6,2.6,0c0.1,0.6-0.5,0.9-1.3,0.9c-1.1,0.1-2.1-0.8-2.1-1.8s0.9-1.9,2.1-1.9
		c0.8,0,1.4,0.5,1.4,1c-0.9-0.7-1.8-0.9-2.8,0.1C43.9,94.8,44.1,95.5,44.4,95.9z M50.1,71.8c-0.5,0-0.6,0.1-0.6,0.6
		c0,4.6,0,9.2,0,13.8c0,0.9,0,0.9-0.9,0.9c-1.5,0-1.3,0.2-1.3-1.3c0-4.5,0-8.9,0-13.4c0-0.5-0.2-0.6-0.6-0.6c-0.5,0-0.8,0-1.3,0
		c-0.3,0-0.5-0.1-0.5-0.5C45,70,45,70,46.3,70c0.1,0,0.2,0,0.3,0c0.5,0.1,0.7-0.1,0.7-0.7c0-1,0-2.2,0-3.2c0-2.1,1.4-3.2,3.3-3.2
		c0.7,0,1.5,0.2,2.2,0.3c0.1,0,0.3,0.2,0.3,0.3c0,0.6,0,1.1,0,1.7c-0.8-0.1-1.5-0.3-2.2-0.3c-1.1,0-1.6,0.6-1.6,1.6
		c0,0.9,0,1.9,0,2.9c0,0.5,0.1,0.6,0.6,0.6c0.8,0,1.6,0,2.4,0c0.5,0,0.6,0.1,0.6,0.6c0,1.4,0.1,1.3-1.3,1.3
		C51.3,72,50.7,72,50.1,71.8z M54.8,96.5c0,0.1-0.1,0.1-0.2,0.2c-0.1,0-0.1,0-0.2,0c0-0.6,0-1.3,0-1.8c0-0.9-0.3-1.4-0.9-1.4
		c-0.6,0-1.3,0.7-1.3,1.4c0,0.6,0,1.1,0,1.7c-0.1,0-0.1,0-0.2,0.1c-0.1-0.1-0.2-0.3-0.2-0.5c0-1.3,0-2.6,0-3.9
		c0-0.1,0.1-0.3,0.2-0.5c0.1,0,0.1,0,0.2,0.1c0,0.6,0,1.1,0,1.7c0.3-0.1,0.5-0.2,0.7-0.3c0.6-0.6,1.7-0.1,1.8,0.8
		C54.9,95,54.8,95.8,54.8,96.5z M67.9,97.9c0,0.1-0.2,0.1-0.3,0.1c0-0.1,0-0.2,0-0.2c0.8-1.1,0.3-2.1-0.2-3.1
		c-0.2-0.5-0.5-0.9-0.6-1.4c0.8,0.7,0.8,1.7,1.5,2.5c0.5-0.9,0.8-1.8,1.3-2.6c0.1,0,0.2,0.1,0.3,0.1C69.3,94.9,68.6,96.4,67.9,97.9z
		 M73.4,85.7c0-0.3,0-0.8,0-1.1c0,0,0-0.1-0.1-0.1c-2.3,2.6-5.3,3.7-8.7,3c-2.2-0.5-3.8-1.7-5-3.4c-2.3-3.2-2.4-8,0.7-11.2
		c1.8-1.9,4-3,6.8-2.9c2.6,0,4.8,1.3,6.4,3.3c0.1,0,0.1-0.1,0.2-0.1c0-0.7,0-1.5,0-2.2c0-0.5,0.1-0.6,0.6-0.6c1.9,0,1.6-0.2,1.6,1.5
		c0,4.9,0,9.9,0,14.8c0,0.6-0.1,0.7-0.7,0.7C73.4,87.1,73.4,87.1,73.4,85.7z M75.9,96.9c-1,0-1.8-0.9-1.8-1.8c0-1,0.9-1.8,1.9-1.8
		c0.9,0.1,1.7,0.8,1.7,1.9C77.8,96.1,76.8,96.9,75.9,96.9z M85.4,95.3c0,1-0.6,1.6-1.6,1.6c-0.9,0-1.5-0.6-1.5-1.6
		c0-0.7,0-1.3,0-1.9c0.1,0,0.2,0,0.3,0c0,0.2,0.1,0.3,0.1,0.6c0,0.5,0,0.9,0,1.3c0,0.9,0.3,1.3,1.1,1.3c0.8,0,1.1-0.3,1.1-1.3
		c0-0.5,0-0.9,0-1.3c0-0.2,0.1-0.3,0.1-0.6c0.1,0,0.1,0,0.2,0c0,0.1,0.1,0.3,0.1,0.5C85.4,94.3,85.4,94.8,85.4,95.3z M88.9,71.8
		c-1.8-0.3-3.1,0.3-4,1.9c-0.8,1.4-0.9,3-0.9,4.5c-0.1,2.6,0,5.4,0,8c0,0.6-0.1,0.8-0.7,0.7c-1.5,0-1.5,0-1.5-1.5c0-4.9,0-10,0-14.9
		c0-0.5,0.1-0.7,0.7-0.7c1.6,0,1.6,0,1.6,1.5c0,0.2,0,0.3,0,0.6c0,0,0.1,0,0.1,0.1c0.2-0.2,0.5-0.6,0.7-0.8c0.7-0.8,1.6-1.5,2.6-1.7
		s1.9-0.1,2.8,0.6c-0.3,0.6-0.6,1-0.9,1.5C89.2,71.8,89,72,88.9,71.8z M91.4,93.6c-0.7,0.1-0.9,0.6-0.9,1.3c0,0.5,0,0.9,0,1.4
		c0,0.1-0.1,0.3-0.1,0.6C90,96.4,90,94,90.3,93.2c0.1,0.2,0.2,0.3,0.2,0.5c0.5,0,0.7-0.7,1.3-0.2C91.5,93.5,91.4,93.6,91.4,93.6z
		 M101,71.7c-0.1,0.1-0.3,0.2-0.5,0.1c-1.6-0.3-2.8,0.1-3.8,1.5c-0.9,1.4-1.1,2.9-1.1,4.5c-0.1,2.8,0,5.6-0.1,8.4
		c0,0.8,0,0.8-0.8,0.8c-1.6,0-1.4,0.2-1.4-1.4c0-5,0-10.1,0-15.1c0-0.3,0.1-0.6,0.5-0.6c0.5,0,0.8,0,1.3,0c0.3,0,0.5,0.1,0.5,0.5
		c0,0.6,0,1,0,1.6c0.1,0,0.1,0.1,0.2,0.1c0.2-0.2,0.5-0.6,0.8-0.8c0.9-1,2.1-1.8,3.6-1.8c0.7,0,1.3,0.2,1.9,0.6
		C101.6,70.8,101.4,71.3,101,71.7z M106.3,96.5c-0.7,0.6-1.5,0.6-2.4-0.1c-0.1,0.1-0.3,0.2-0.5,0.3c0-0.2-0.1-0.5-0.1-0.6
		c0-1.3,0-2.4,0-3.7c0-0.2,0.1-0.3,0.1-0.6c0.1,0,0.2,0,0.2,0.1c0,0.6,0,1,0,1.7c0.7-0.3,1.3-0.8,1.9-0.5c0.3,0.2,0.8,0.5,1,0.9
		C107.1,95,106.9,95.9,106.3,96.5z M105.2,80.2c-0.7-4.4,1.6-8.5,5.4-10c1.9-0.8,4.1-0.8,6.2-0.2c3.3,1,5.2,3.3,5.8,6.6
		c0.1,0.5,0.1,1,0.1,1.5c0,0.1-0.2,0.3-0.3,0.5s-0.2,0-0.5,0c-4.7,0-9.4,0-14,0c-0.6,0-0.7,0.1-0.7,0.7c0.3,2.8,1.6,4.7,4.2,5.7
		c2.4,0.9,5.7,0.2,7.5-1.7c0.5-0.5,0.8-0.9,1.1-1.5c0.2-0.3,0.3-0.5,0.8-0.2c0.3,0.2,0.8,0.5,1.3,0.7c-0.6,1.3-1.4,2.4-2.5,3.2
		c-2.1,1.6-4.4,2.1-6.9,1.8C108.4,87.1,105.7,83.5,105.2,80.2z M114.4,95.1c-0.7,0-1.5,0-2.2,0c-0.6,0-0.7,0.2-0.3,0.7
		c0.5,0.8,1.5,1,2.2,0.5c0.1-0.1,0.2-0.3,0.3-0.6c0.1,0.1,0.1,0.1,0.2,0.2c0.1,0.5-0.3,0.7-0.7,0.9c-0.6,0.3-1.6,0.2-2.1-0.2
		c-0.6-0.6-0.8-1.4-0.5-2.1c0.3-0.8,1-1.3,1.8-1.3c0.7,0,1.5,0.7,1.7,1.4C115,95,114.8,95.1,114.4,95.1z M123,96.1
		c0,0.2-0.1,0.3-0.1,0.6c-0.1-0.1-0.2-0.2-0.5-0.3c-1,0.7-1.8,0.7-2.5-0.1c-0.7-0.7-0.7-1.7,0-2.4s1.3-1,2.5-0.2
		c0.2-0.1,0.3-0.2,0.6-0.2c0,0.1,0.1,0.3,0.1,0.5C123,94.7,123,95.5,123,96.1z M130.7,95.8c-0.1,0.8-0.7,1.1-1.5,1
		c-0.8,0-1.3-0.3-1.4-1.1c-0.1-0.7,0-1.5,0-2.3c0,0,0.1-0.1,0.2-0.2c0.1,0.2,0.1,0.5,0.1,0.7c0,0.5,0,0.9,0,1.4
		c0,0.9,0.3,1.3,1.1,1.3c0.8,0,1-0.3,1.1-1.3c0-0.5,0-0.9,0-1.3c0-0.2,0.1-0.3,0.1-0.7c0.1,0.1,0.2,0.2,0.2,0.2
		C130.7,94.2,130.8,95,130.7,95.8z M135.2,71.8c-1.1-0.5-2.1,0-3,0.8c-1.4,1.3-1.8,2.9-1.8,4.7c-0.1,3-0.1,6-0.1,9.1
		c0,0.8,0,0.8-0.8,0.8c-1.4,0-1.4,0-1.4-1.4c0-4.9,0-10,0-14.9c0-0.6,0.1-0.7,0.7-0.7c1.8,0,1.5-0.2,1.5,1.6c0,0.2,0,0.5,0,0.7
		c0,0,0.1,0,0.1,0.1c0.1-0.1,0.3-0.3,0.5-0.5c0.8-1,1.8-1.8,3.1-2.1c0.9-0.2,1.8-0.1,2.8,0.5c-0.3,0.6-0.6,1-0.9,1.5
		C135.5,71.8,135.3,71.8,135.2,71.8z M136.9,93.5c-0.6,0.2-0.7,0.7-0.6,1.1c0,0.5,0,1,0,1.5c0,0.1-0.1,0.3-0.1,0.5
		c-0.1,0-0.1,0-0.2,0c0-0.2-0.1-0.3-0.1-0.6c0-0.6,0-1.3,0-1.8c0-0.3,0.1-0.7-0.3-0.8c0,0,0-0.2-0.1-0.3c0.7-0.1,0.3-0.7,0.5-1
		c0-0.1,0.1-0.2,0.1-0.5c0.6,0.5-0.2,1.5,0.8,1.4C136.9,93.5,136.9,93.5,136.9,93.5z M142.4,98c0,0-0.1,0-0.2,0c0-0.1,0-0.1,0-0.2
		c0.7-0.9,0.5-1.7,0-2.6c-0.3-0.6-0.6-1.1-0.7-1.8c0.8,0.7,0.8,1.7,1.5,2.5c0.7-0.8,0.7-1.8,1.4-2.5c0.1,0,0.1,0.1,0.2,0.1
		C143.8,95,143.1,96.5,142.4,98z M147.3,71.7c-0.1,0.1-0.3,0.2-0.5,0.2c-1.3-0.5-2.3,0-3.2,0.9c-1.3,1.3-1.6,3-1.6,4.7
		c-0.1,3-0.1,5.8-0.1,8.8c0,0.6-0.1,0.8-0.7,0.7c-1.5,0-1.5,0-1.5-1.5c0-4.9,0-9.7,0-14.7c0-0.8,0-0.8,0.8-0.8
		c1.7,0,1.4-0.2,1.5,1.5c0,0.2,0,0.3,0,0.6c0,0,0,0,0.1,0.1c1.3-1.6,2.6-2.9,4.8-2.8c0.5,0,0.9,0.3,1.5,0.5
		C147.9,70.8,147.7,71.3,147.3,71.7z"/>
	<path d="M1.6,64.2C2.3,64.2,3,64,3.7,64C3.8,64,4,64.5,4,64.7c0,2.8,0,5.5,0,8.3c0,3.7,0,7.5,0,11.1c0,0.8,0,0.8,0.8,0.8
		c2.5,0,4.9,0,7.5,0c0.5,0,0.8,0.1,0.7,0.7c0,0.3,0,0.7,0,0.9c0,0.5-0.1,0.6-0.6,0.6c-3.3,0-6.8,0-10.1,0c-0.2,0-0.5-0.1-0.7-0.1
		C1.6,79.4,1.6,71.7,1.6,64.2z"/>
	<path d="M31,61.9c-0.1,0.2-0.1,0.5-0.2,0.6c-1.3,1.4-2.5,2.6-3.9,4c-0.1,0.1-0.5,0.2-0.7,0.3c-0.5,0-1,0-1.7,0
		c0.7-1,1.4-1.9,1.9-2.9c0.5-0.7,0.9-1.4,1.4-2.1C28.9,61.9,30,61.9,31,61.9z"/>
	<path d="M122.1,82.4c-0.6,1.3-1.4,2.4-2.5,3.2c-2.1,1.6-4.4,2.1-6.9,1.8c-4.4-0.3-7-3.9-7.5-7.2c-0.7-4.4,1.6-8.5,5.4-10
		c1.9-0.8,4.1-0.8,6.2-0.2c3.3,1,5.2,3.3,5.8,6.6c0.1,0.5,0.1,1,0.1,1.5c0,0.1-0.2,0.3-0.3,0.5c-0.1,0.1-0.2,0-0.5,0
		c-4.7,0-9.4,0-14,0c-0.6,0-0.7,0.1-0.7,0.7c0.3,2.8,1.6,4.7,4.2,5.7c2.4,0.9,5.7,0.2,7.5-1.7c0.5-0.5,0.8-0.9,1.1-1.5
		c0.2-0.3,0.3-0.5,0.8-0.2C121.2,82,121.7,82.2,122.1,82.4z M120.3,76.8c0.1-2.3-3-4.9-5.7-5c-4-0.2-6.4,2.3-7,5
		C111.8,76.8,116,76.8,120.3,76.8z"/>
	<path d="M33.2,72.9c0-0.7,0-1.4,0-2.1c0-0.6,0.1-0.8,0.7-0.8c1.5,0,1.5,0,1.5,1.5c0,4.9,0,9.9,0,14.9c0,0.6-0.1,0.8-0.7,0.8
		c-1.7-0.1-1.5,0.2-1.5-1.5c0-0.3,0-0.8-0.1-1.3c-2.4,2.5-5.4,3.7-8.8,2.9c-2.1-0.5-3.7-1.6-4.9-3.2c-2.4-3.1-2.4-7.9,0-10.9
		c1.7-2.2,4-3.4,6.9-3.6c2.9-0.1,5,1.1,6.9,3.3C33.1,73,33.2,72.9,33.2,72.9z M26.5,85.5c3.9,0,6.9-3,6.9-6.9c0-4-3-6.9-6.9-6.9
		c-3.8,0-6.8,3.1-6.8,6.9C19.6,82.4,22.7,85.5,26.5,85.5z"/>
	<path d="M73.4,72.9c0-0.7,0-1.5,0-2.2c0-0.5,0.1-0.6,0.6-0.6c1.9,0,1.6-0.2,1.6,1.5c0,4.9,0,9.9,0,14.8c0,0.6-0.1,0.7-0.7,0.7
		c-1.5,0-1.5,0-1.5-1.5c0-0.3,0-0.8,0-1.1c0,0,0-0.1-0.1-0.1C71,87,68,88,64.6,87.3c-2.2-0.5-3.8-1.7-5-3.4c-2.3-3.2-2.4-8,0.7-11.2
		c1.8-1.9,4-3,6.8-2.9c2.6,0,4.8,1.3,6.4,3.3C73.3,73,73.3,72.9,73.4,72.9z M73.5,78.7c0.1-4-3.1-6.9-6.5-7
		c-4.1-0.1-7.1,3.1-7.1,6.8c-0.1,3.8,3,7,6.5,7C70.5,85.6,73.5,82.7,73.5,78.7z"/>
	<path d="M53.3,65.4c-0.8-0.1-1.5-0.3-2.2-0.3c-1.1,0-1.6,0.6-1.6,1.6c0,0.9,0,1.9,0,2.9c0,0.5,0.1,0.6,0.6,0.6c0.8,0,1.6,0,2.4,0
		c0.5,0,0.6,0.1,0.6,0.6c0,1.4,0.1,1.3-1.3,1.3c-0.6,0-1.1,0-1.8,0c-0.5,0-0.6,0.1-0.6,0.6c0,4.6,0,9.2,0,13.8c0,0.9,0,0.9-0.9,0.9
		c-1.5,0-1.3,0.2-1.3-1.3c0-4.5,0-8.9,0-13.4c0-0.5-0.2-0.6-0.6-0.6c-0.5,0-0.8,0-1.3,0c-0.3,0-0.5-0.1-0.5-0.5
		c-0.1-1.4-0.1-1.4,1.3-1.4c0.1,0,0.2,0,0.3,0c0.5,0.1,0.7-0.1,0.7-0.7c0-1,0-2.2,0-3.2c0-2.1,1.4-3.2,3.3-3.2
		c0.7,0,1.5,0.2,2.2,0.3c0.1,0,0.3,0.2,0.3,0.3C53.5,64.3,53.3,64.8,53.3,65.4z"/>
	<path d="M148.4,70.1c-0.3,0.6-0.7,1.1-0.9,1.5c-0.1,0.1-0.3,0.2-0.5,0.2c-1.3-0.5-2.3,0-3.2,0.9c-1.3,1.3-1.6,3-1.6,4.7
		c-0.1,3-0.1,5.8-0.1,8.8c0,0.6-0.1,0.8-0.7,0.7c-1.5,0-1.5,0-1.5-1.5c0-4.9,0-9.7,0-14.7c0-0.8,0-0.8,0.8-0.8
		c1.7,0,1.4-0.2,1.5,1.5c0,0.2,0,0.3,0,0.6c0,0,0,0,0.1,0.1c1.3-1.6,2.6-2.9,4.8-2.8C147.3,69.7,147.8,70,148.4,70.1z"/>
	<path d="M136.6,70.2c-0.3,0.6-0.6,1-0.9,1.5c-0.1,0.1-0.3,0.2-0.6,0.1c-1.1-0.5-2.1,0-3,0.8c-1.4,1.3-1.8,2.9-1.8,4.7
		c-0.1,3-0.1,6-0.1,9.1c0,0.8,0,0.8-0.8,0.8c-1.4,0-1.4,0-1.4-1.4c0-4.9,0-10,0-14.9c0-0.6,0.1-0.7,0.7-0.7c1.8,0,1.5-0.2,1.5,1.6
		c0,0.2,0,0.5,0,0.7c0,0,0.1,0,0.1,0.1c0.1-0.1,0.3-0.3,0.5-0.5c0.8-1,1.8-1.8,3.1-2.1C134.9,69.4,135.8,69.7,136.6,70.2z"/>
	<path d="M84.1,72.3c0.2-0.2,0.5-0.6,0.7-0.8c0.7-0.8,1.6-1.5,2.6-1.7s1.9-0.1,2.8,0.6c-0.3,0.6-0.6,1-0.9,1.5
		C89.1,72,89,72,88.9,72c-1.8-0.3-3.1,0.3-4,1.9c-0.8,1.4-0.9,3-0.9,4.5c-0.1,2.6,0,5.4,0,8c0,0.6-0.1,0.8-0.7,0.7
		c-1.5,0-1.5,0-1.5-1.5c0-4.9,0-10,0-14.9c0-0.5,0.1-0.7,0.7-0.7c1.6,0,1.6,0,1.6,1.5c0,0.2,0,0.3,0,0.6
		C84,72.2,84.1,72.2,84.1,72.3z"/>
	<path d="M95.8,72.3c0.2-0.2,0.5-0.6,0.8-0.8c0.9-1,2.1-1.8,3.6-1.8c0.7,0,1.3,0.2,1.9,0.6c-0.3,0.6-0.6,1-0.9,1.5
		c-0.1,0.1-0.3,0.2-0.5,0.1c-1.6-0.3-2.8,0.1-3.8,1.5c-0.9,1.4-1.1,2.9-1.1,4.5c-0.1,2.8,0,5.6-0.1,8.4c0,0.8,0,0.8-0.8,0.8
		c-1.6,0-1.4,0.2-1.4-1.4c0-5,0-10.1,0-15.1c0-0.3,0.1-0.6,0.5-0.6c0.5,0,0.8,0,1.3,0c0.3,0,0.5,0.1,0.5,0.5c0,0.6,0,1,0,1.6
		C95.6,72.2,95.6,72.2,95.8,72.3z"/>
	<path d="M103.7,92c0,0.6,0,1,0,1.7c0.7-0.3,1.3-0.8,1.9-0.5c0.3,0.2,0.8,0.5,1,0.9c0.5,0.7,0.2,1.7-0.5,2.3s-1.5,0.6-2.4-0.1
		c-0.1,0.1-0.3,0.2-0.5,0.3c0-0.2-0.1-0.5-0.1-0.6c0-1.3,0-2.4,0-3.7c0-0.2,0.1-0.3,0.1-0.6C103.6,92,103.7,92,103.7,92z M105,96.5
		c0.9,0,1.5-0.6,1.5-1.4s-0.7-1.5-1.4-1.5s-1.4,0.7-1.5,1.4C103.7,95.8,104.2,96.5,105,96.5z"/>
	<path d="M114.7,95.8c0.1,0.5-0.3,0.7-0.7,0.9c-0.6,0.3-1.6,0.2-2.1-0.2c-0.6-0.6-0.8-1.4-0.5-2.1c0.3-0.8,1-1.3,1.8-1.3
		c0.7,0,1.5,0.7,1.7,1.4c0.1,0.3-0.1,0.5-0.5,0.5c-0.7,0-1.5,0-2.2,0c-0.6,0-0.7,0.2-0.3,0.7c0.5,0.8,1.5,1,2.2,0.5
		c0.1-0.1,0.2-0.3,0.3-0.6C114.6,95.7,114.6,95.8,114.7,95.8z M111.9,94.7c0.8,0,1.6,0,2.4,0c-0.2-0.7-0.7-0.9-1.3-0.9
		C112.6,93.7,112.2,94,111.9,94.7z"/>
	<path d="M11.5,95c-1,0-2.1,0-3,0c-0.2,0.8,0.2,1.3,1,1.5c0.8,0.1,1.3-0.3,1.7-0.8c0,0.8-1,1.3-1.6,1.3c-0.9,0-1.6-0.8-1.7-1.7
		c0-0.9,0.7-1.8,1.6-1.9C10.5,93.1,11.3,93.7,11.5,95z M11,94.7c-0.2-0.7-0.8-1-1.4-1s-1,0.5-1.3,1C9.3,94.7,10.1,94.7,11,94.7z"/>
	<path d="M122.4,93.7c0.2-0.1,0.3-0.2,0.6-0.2c0,0.1,0.1,0.3,0.1,0.5c0,0.8,0,1.5,0,2.3c0,0.2-0.1,0.3-0.1,0.6
		c-0.1-0.1-0.2-0.2-0.5-0.3c-1,0.7-1.8,0.7-2.5-0.1c-0.7-0.7-0.7-1.7,0-2.4C120.5,93.2,121.2,92.8,122.4,93.7z M122.7,95.1
		c0-0.8-0.6-1.5-1.4-1.5c-0.8,0-1.4,0.7-1.5,1.5c0,0.8,0.6,1.4,1.4,1.5C122,96.5,122.6,96,122.7,95.1z"/>
	<path d="M54.5,96.7c0-0.6,0-1.3,0-1.8c0-0.9-0.3-1.4-0.9-1.4c-0.6,0-1.3,0.7-1.3,1.4c0,0.6,0,1.1,0,1.7c-0.1,0-0.1,0-0.2,0.1
		c-0.1-0.1-0.2-0.3-0.2-0.5c0-1.3,0-2.6,0-3.9c0-0.1,0.1-0.3,0.2-0.5c0.1,0,0.1,0,0.2,0.1c0,0.6,0,1.1,0,1.7
		c0.3-0.1,0.5-0.2,0.7-0.3c0.6-0.6,1.7-0.1,1.8,0.8c0.1,0.8,0.1,1.6,0.1,2.4c0,0.1-0.1,0.1-0.2,0.2C54.6,96.7,54.6,96.7,54.5,96.7z"
		/>
	<path d="M76,93.2c0.9,0.1,1.7,0.8,1.7,1.9c0,0.9-0.9,1.8-1.8,1.7c-1,0-1.8-0.9-1.8-1.8S75,93.2,76,93.2z M77.3,95.1
		c0-0.8-0.6-1.5-1.4-1.5c-0.8,0-1.5,0.7-1.5,1.5s0.6,1.4,1.5,1.4C76.8,96.5,77.3,95.9,77.3,95.1z"/>
	<path d="M27.9,95.1c0-1,0.8-1.8,1.8-1.8c0.9,0,1.8,0.9,1.8,1.8c0,1-0.8,1.8-1.8,1.8S27.9,96.1,27.9,95.1z M29.6,96.5
		c0.8,0,1.5-0.6,1.5-1.4c0-0.7-0.7-1.5-1.5-1.5c-0.8,0-1.4,0.7-1.4,1.5S28.8,96.5,29.6,96.5z"/>
	<path d="M47,95.9c0.1,0.6-0.5,0.9-1.3,0.9c-1.1,0.1-2.1-0.8-2.1-1.8s0.9-1.9,2.1-1.9c0.8,0,1.4,0.5,1.4,1c-0.9-0.7-1.8-0.9-2.8,0.1
		c-0.3,0.5-0.3,1.3,0.1,1.6C45.2,96.8,46.1,96.6,47,95.9z"/>
	<path d="M128,93.2c0.1,0.2,0.1,0.5,0.1,0.7c0,0.5,0,0.9,0,1.4c0,0.9,0.3,1.3,1.1,1.3c0.8,0,1-0.3,1.1-1.3c0-0.5,0-0.9,0-1.3
		c0-0.2,0.1-0.3,0.1-0.7c0.1,0.1,0.2,0.2,0.2,0.2c0,0.8,0.1,1.6-0.1,2.3c-0.1,0.8-0.7,1.1-1.5,1c-0.8,0-1.3-0.3-1.4-1.1
		c-0.1-0.7,0-1.5,0-2.3C127.7,93.4,127.9,93.4,128,93.2z"/>
	<path d="M82.6,93.4c0,0.2,0.1,0.3,0.1,0.6c0,0.5,0,0.9,0,1.3c0,0.9,0.3,1.3,1.1,1.3c0.8,0,1.1-0.3,1.1-1.3c0-0.5,0-0.9,0-1.3
		c0-0.2,0.1-0.3,0.1-0.6c0.1,0,0.1,0,0.2,0c0,0.1,0.1,0.3,0.1,0.5c0,0.5,0,1,0,1.5c0,1-0.6,1.6-1.6,1.6c-0.9,0-1.5-0.6-1.5-1.6
		c0-0.7,0-1.3,0-1.9C82.5,93.4,82.5,93.4,82.6,93.4z"/>
	<path d="M36.4,93.4c0,0.2,0.1,0.3,0.1,0.6c0,0.5,0,1,0,1.5c0,0.7,0.3,1,1,1c0.8,0,1-0.2,1.1-1c0-0.5,0-1,0-1.5
		c0-0.2,0.1-0.3,0.1-0.6h0.1c0.1,0.1,0.2,0.2,0.2,0.5c0,0.7,0,1.3-0.1,1.9c0,0.6-0.3,0.9-0.9,1s-1.3,0.1-1.7-0.5
		C36,95.9,35.9,94,36.4,93.4z"/>
	<path d="M67.6,98.1c0-0.1,0-0.2,0-0.2c0.8-1.1,0.3-2.1-0.2-3.1c-0.2-0.5-0.5-0.9-0.6-1.4c0.8,0.7,0.8,1.7,1.5,2.5
		c0.5-0.9,0.8-1.8,1.3-2.6c0.1,0,0.2,0.1,0.3,0.1c-0.7,1.5-1.3,3-1.9,4.5C67.9,98,67.8,98,67.6,98.1z"/>
	<path d="M144.5,93.4c-0.7,1.5-1.4,3-2.1,4.6c0,0-0.1,0-0.2,0c0-0.1,0-0.1,0-0.2c0.7-0.9,0.5-1.7,0-2.6c-0.3-0.6-0.6-1.1-0.7-1.8
		c0.8,0.7,0.8,1.7,1.5,2.5c0.7-0.8,0.7-1.8,1.4-2.5C144.3,93.4,144.4,93.4,144.5,93.4z"/>
	<path d="M136.1,91.9c0.6,0.5-0.2,1.5,0.8,1.4c0,0.1,0,0.1,0,0.2c-0.6,0.2-0.7,0.7-0.6,1.1c0,0.5,0,1,0,1.5c0,0.1-0.1,0.3-0.1,0.5
		c-0.1,0-0.1,0-0.2,0c0-0.2-0.1-0.3-0.1-0.6c0-0.6,0-1.3,0-1.8c0-0.3,0.1-0.7-0.3-0.8c0,0,0-0.2-0.1-0.3c0.7-0.1,0.3-0.7,0.5-1
		C136,92.2,136,92.1,136.1,91.9z"/>
	<path d="M21.8,93.4c1-0.1,0.3-1,0.8-1.4c0.5,0.3-0.3,1.4,0.8,1.4c0,0.1,0,0.2-0.1,0.2c-0.7,0.1-0.6,0.6-0.6,1c0,0.6,0,1.1,0,1.6
		c0,0.2,0,0.3-0.1,0.6c-0.1,0-0.1,0-0.2,0c0-0.1-0.1-0.2-0.1-0.5c0-0.5,0-1,0-1.5C22.4,94.3,22.6,93.7,21.8,93.4z"/>
	<path d="M91.6,93.4c-0.1,0.1-0.2,0.1-0.3,0.2c-0.7,0.1-0.9,0.6-0.9,1.3c0,0.5,0,0.9,0,1.4c0,0.1-0.1,0.3-0.1,0.6
		c-0.3-0.5-0.3-2.9-0.1-3.7c0.1,0.2,0.2,0.3,0.2,0.5C90.8,93.6,91.1,92.9,91.6,93.4z"/>
	<path d="M2.4,96.8c-0.1-0.1-0.2-0.2-0.2-0.3c0-0.9,0-1.8,0-2.6c0-0.1,0.1-0.2,0.1-0.3c0.1,0.1,0.2,0.1,0.5,0.2
		c0.7-0.6,0.7-0.6,1-0.3c0,0.1-0.1,0.1-0.1,0.2c-1,0.1-1,0.9-1,1.7c0,0.5,0,1,0,1.5C2.6,96.7,2.6,96.7,2.4,96.8z"/>
	<path d="M15.9,95.2c0.6-0.3,1.4-0.3,1.7,0C17,95.2,16.4,95.2,15.9,95.2z"/>
	<path class="st2" d="M11,94.7c-0.9,0-1.7,0-2.5,0c0.1-0.7,0.6-1,1.3-1C10.2,93.6,10.8,94,11,94.7z"/>
</g>
</svg>
