<?xml version="1.0" encoding="utf-8"?>
<!-- Generator: Adobe Illustrator 25.2.3, SVG Export Plug-In . SVG Version: 6.00 Build 0)  -->
<svg version="1.1" id="Layer_1" xmlns="http://www.w3.org/2000/svg" xmlns:xlink="http://www.w3.org/1999/xlink" x="0px" y="0px"
	 viewBox="0 0 150 150" style="enable-background:new 0 0 150 150;" xml:space="preserve">
<style type="text/css">
	.st0{enable-background:new    ;}
	.st1{opacity:0.6784;enable-background:new    ;}
	.st2{fill:#DAB77C;}
</style>
<g id="Rectangle_1_1_" class="st0">
</g>
<g id="Rectangle_1_copy_1_" class="st0">
</g>
<g id="Rectangle_1_copy_2_1_" class="st0">
</g>
<g id="Rectangle_1_copy_3_1_" class="st0">
</g>
<g id="Shape_1_1_" class="st1">
</g>
<g id="Rectangle_1_2_" class="st0">
</g>
<g id="Rectangle_1_copy_2_" class="st0">
</g>
<g id="Rectangle_1_copy_2_2_" class="st0">
</g>
<g id="Rectangle_1_copy_3_2_" class="st0">
</g>
<g id="Shape_1_2_" class="st1">
</g>
<g id="ovs-logo-DBCD422915-seeklogo.com_xA0_Image_1_">
	<g>
		<path class="st2" d="M23.3,84.9c0-0.1,0-0.2,0-0.3c0-4-0.1-8.2-0.1-12.2c0-0.2,0-0.4-0.2-0.4c-0.1,0-0.3,0.1-0.3,0.2
			c-2,3.5-4.1,7-6.2,10.5c-0.4,0.7-1,1.6-1.7,2c-0.2,0.1-0.4,0.2-0.5,0.2c-0.4,0-0.7-0.4-1-0.9c-2.2-4-4.6-8-7-11.9
			c-0.1-0.2-0.3-0.4-0.5-0.3c-0.3,0-0.3,0.4-0.3,0.6c0.1,4.1,0.1,8.2,0.2,12.3c0,0.6,0,1.4-0.3,1.9c-0.4,0.6-1.3,0.9-2,0.9
			s-1.5,0.1-1.5-0.9c-0.3-7.4-0.3-14.8-0.4-22c0-0.2,0-0.5,0.2-0.6c0.1-0.1,0.3-0.1,0.5-0.1c1.7,0.3,3.2,1.4,4.4,2.6
			c1.2,1.3,2,2.8,3,4.3c1.5,2.4,2.9,4.8,4.4,7.2c0.1,0.2,0.3,0.4,0.5,0.5c0.3,0,0.5-0.3,0.6-0.5c1.5-2.6,2.9-5.2,4.4-7.8
			c0.9-1.4,1.6-2.9,2.8-4s2.8-2,4.4-1.9c0.1,0,0.2,0,0.3,0.1c0.1,0,0.1,0.1,0.1,0.3c0.1,7.4,0.2,14.9,0.3,22.3c0,0.2,0,0.4-0.1,0.5
			c-0.1,0.1-0.3,0.1-0.5,0.1c-1.1,0-2.1-0.2-2.8-1C23.4,86.1,23.3,85.5,23.3,84.9z"/>
		<path class="st2" d="M147.6,67.5c0,0.4-0.1,1-0.2,1.4c-0.4,1.3-1.4,2.2-2.2,3.2c-1.3,1.4-2.6,2.8-3.8,4c-0.2,0.2-0.4,0.4-0.3,0.6
			c0,0.2,0.1,0.3,0.3,0.5c1.9,2.2,3.9,4.4,5.8,6.6c0.4,0.5,1,1.1,1,1.7c0.1,0.6-0.2,1.2-0.5,1.7c-0.3,0.4-0.9,0.9-1.4,1.2
			c-0.1,0.1-0.2,0.1-0.3,0.1c-0.2,0-0.3-0.1-0.5-0.3c-2.2-2.7-4.5-5.3-6.8-7.9c-0.1-0.1-0.2-0.2-0.3-0.3c-0.3-0.1-0.7,0.2-1,0.4
			c-2.1,2.6-4.3,5.1-6.5,7.7c-0.1,0.1-0.2,0.2-0.3,0.2c-0.1,0-0.2,0-0.3-0.1c-0.7-0.4-1.5-1.2-1.8-2c-0.3-1,0.3-1.9,1-2.6
			c1.7-2.1,3.5-4.1,5.4-6.1c0.2-0.2,0.5-0.5,0.5-1c0-0.3-0.2-0.5-0.4-0.7c-1.3-1.3-2.4-2.6-3.7-3.9c-1-1-1.9-2-2.3-3.3
			c-0.4-1.3-0.3-3,0.9-3.7c0.1-0.1,0.2-0.1,0.3-0.1c0.1,0,0.2,0.1,0.2,0.2c2.4,2.8,5,5.5,7.4,8.3c0.2,0.2,0.5,0.5,0.7,0.4
			c0.1,0,0.2-0.1,0.3-0.2c2.3-2.7,4.7-5.4,7-8.1c0.1-0.1,0.3-0.3,0.5-0.3c0.2,0,0.3,0.1,0.5,0.2C147.3,65.8,147.6,66.7,147.6,67.5z"
			/>
		<path class="st2" d="M118.9,88.3c-0.1,0-0.2,0-0.3,0c-2.3,0-4.9,0.1-6.9-1.1c-1.7-0.9-2.9-2.3-3.6-4.1c-0.4-1-0.3-2.2-0.3-3.3
			c0-1.3,0-2.4,0-3.7c0-3.6,0-7.2,0-10.8c0-0.1,0-0.2,0-0.3c0.1-0.2,0.3-0.2,0.5-0.2c3.9,0.2,7.9,0.2,11.8,0.1
			c1.2,0,2.3-0.1,3.4,0.3c1.1,0.4,2,1.4,2,2.6c0,0.1,0,0.3-0.1,0.4c-0.1,0.1-0.3,0.1-0.4,0.1c-4.1-0.1-8.4-0.1-12.5-0.2
			c-0.1,0-0.3,0-0.4,0.1c-0.1,0.1-0.1,0.3-0.1,0.4c0,1.8,0.1,3.6,0.1,5.5c0,0.1,0,0.3,0.1,0.4c0.1,0.2,0.4,0.2,0.6,0.2
			c3.3,0.1,6.6,0.2,9.9,0.1c0.2,0,0.5,0,0.6,0.2c0,0.1,0.1,0.2,0.1,0.3c0,0.7,0.1,1.6-0.4,2.1c-0.5,0.5-1.4,0.5-2.1,0.5
			c-2.7-0.1-5.2-0.1-7.9-0.2c-0.2,0-0.5,0-0.7,0.2c-0.1,0.1-0.1,0.3-0.1,0.5c0,0.9,0,1.8,0,2.7c0,0.6,0.1,1.3,0.4,1.9
			c0.4,1,1.4,1.6,2.4,1.8c1.1,0.3,2.1,0.2,3.1,0.2c2.4,0,5-0.1,7.4-0.1c0.2,0,0.3,0,0.4,0.1c0.1,0.1,0.1,0.2,0.1,0.4
			c0.1,1-0.4,2-1.3,2.4c-0.4,0.2-1,0.2-1.5,0.2C121.7,88.1,120.4,88.3,118.9,88.3z"/>
		<path class="st2" d="M87.6,77.7c0,1.4,0,2.8,0.1,4.1c0.1,1,0.2,2,0,3c-0.1,1-0.5,1.9-1.3,2.6c-0.5,0.5-1.5,0.7-2.2,0.5
			c-1-0.2-0.5-1.5-0.4-2.2c0.1-2.1,0.1-4.4,0-6.5c-0.1-1.9-0.3-3.8-0.1-5.7s0.6-3.8,1.8-5.4c1.8-2.4,5-3.5,8-3.6
			c3.2-0.2,6.5,0.6,8.7,2.9c1.4,1.4,2.1,3.3,2.6,5.2c0.4,1.9,0.4,3.8,0.4,5.8c0,3.1,0.1,6.2,0.1,9.2c0,0.2,0,0.5-0.2,0.6
			c-0.1,0-0.2,0-0.3,0c-1.1-0.1-2.1-0.4-2.9-1.3c-0.6-0.9-0.7-2-0.7-3.1c0-2.6-0.1-5-0.1-7.5c0-2-0.1-4.3-1.3-6
			c-0.7-1.1-2-1.8-3.3-2.2c-1.3-0.3-2.7-0.3-4,0c-1.1,0.2-2.2,0.6-3.1,1.4c-1.3,1.3-1.5,3.2-1.6,5C87.6,75.6,87.6,76.7,87.6,77.7z"
			/>
		<path class="st2" d="M29.7,72.4c0-2.4-0.1-4.9-0.1-7.2c0-0.3,0-0.6,0.2-0.7s0.4-0.1,0.6,0c1,0.2,2,0.5,2.7,1.4
			c0.5,0.7,0.6,1.8,0.6,2.8c0,2.6,0.1,5,0.1,7.5c0,1.3,0,2.6,0.3,3.8c0.3,1.3,0.9,2.4,1.9,3.3c1,0.7,2.1,1.2,3.4,1.4
			c2.2,0.3,4.7-0.1,6.3-1.7c0.9-1,1.4-2.1,1.6-3.4c0.2-1.3,0.2-2.6,0.2-3.7c0-2.4-0.1-4.8-0.1-7.2c0-0.7,0-1.6,0.2-2.2
			c0.4-1.2,1.7-1.9,2.9-1.8c0.1,0,0.3,0,0.4,0.1c0.2,0.2,0.2,0.4,0.2,0.6c-0.1,2.9-0.1,5.8,0,8.7c0.1,1.8,0.2,3.6,0,5.4
			s-0.7,3.6-1.8,5c-1.8,2.2-4.8,3.3-7.7,3.5c-2.4,0.2-5.1-0.2-7.2-1.6c-2.3-1.4-3.6-3.8-4.1-6.4c-0.4-1.9-0.4-3.9-0.4-6
			C29.7,73.4,29.7,72.9,29.7,72.4z"/>
		<path class="st2" d="M69.4,87.7c-0.2,0-0.4,0-0.6,0c-2.7,0-5.2,0-7.8-0.6c-2.3-0.6-4.5-1.8-6-3.7c-1.6-2-2.1-5.3-2.1-7.9
			c0-2.6,0.9-5.1,2.6-6.9c1.3-1.5,3.2-2.3,5-2.9c1.9-0.5,3.8-0.6,5.8-0.7c1.6,0,3.1,0,4.7,0c0.7,0,1.5,0,2.2,0c0.1,0,0.2,0,0.3,0.1
			c0.1,0.1,0.1,0.3,0,0.4c-0.4,1.1-0.9,2.2-1.7,3c-0.9,0.6-2,0.7-3.1,0.7c-1.7,0-3.4-0.1-5.1,0.1c-1.7,0.2-3.4,0.7-4.7,1.9
			c-1,0.9-1.5,2-1.8,3.2c-0.5,1.9-0.1,4,0.9,5.7c1.1,1.7,2.9,3,4.8,3.3c1.5,0.3,3,0.2,4.4,0.1c1.5-0.1,3-0.1,4.4,0.5
			c1.4,0.5,2.6,1.8,2.7,3.3c0,0.1,0,0.1,0,0.2c-0.1,0.1-0.2,0.1-0.2,0.1c-0.5,0-1.2,0-1.7,0C71.4,87.7,70.4,87.7,69.4,87.7z"/>
		<path class="st2" d="M77.3,85.2c0-5.2-0.1-10.4-0.2-15.5c0-0.7,0-1.6,0.1-2.3c0.1-0.7,0.5-1.5,1.1-2c0.6-0.5,1.5-0.7,2.2-0.9
			c0.2,0,0.4,0,0.4,0.1c0.1,0.1,0.1,0.2,0.1,0.3c0,3.8,0,7.7,0.1,11.5c0,2.9,0,5.7,0.1,8.6c0,0.6,0,1.3-0.3,1.8
			c-0.3,0.5-0.9,0.7-1.4,0.9c-0.5,0.1-1.2,0.1-1.7,0.1c-0.1,0-0.3,0-0.4-0.2c0,0,0-0.1,0-0.2C77.3,86.7,77.3,85.9,77.3,85.2z"/>
	</g>
</g>
</svg>
