<?xml version="1.0" encoding="utf-8"?>
<!-- Generator: Adobe Illustrator 25.2.3, SVG Export Plug-In . SVG Version: 6.00 Build 0)  -->
<svg version="1.1" id="Layer_1" xmlns="http://www.w3.org/2000/svg" xmlns:xlink="http://www.w3.org/1999/xlink" x="0px" y="0px"
	 viewBox="0 0 150 150" style="enable-background:new 0 0 150 150;" xml:space="preserve">
<style type="text/css">
	.st0{enable-background:new    ;}
	.st1{opacity:0.6784;enable-background:new    ;}
	.st2{fill:#FFFFFF;}
</style>
<g id="Rectangle_1_1_" class="st0">
</g>
<g id="Rectangle_1_copy_1_" class="st0">
</g>
<g id="Rectangle_1_copy_2_1_" class="st0">
</g>
<g id="Rectangle_1_copy_3_1_" class="st0">
</g>
<g id="Shape_1_1_" class="st1">
</g>
<g id="Rectangle_1_2_" class="st0">
</g>
<g id="Rectangle_1_copy_2_" class="st0">
</g>
<g id="Rectangle_1_copy_2_2_" class="st0">
</g>
<g id="Rectangle_1_copy_3_2_" class="st0">
</g>
<g id="Shape_1_2_" class="st1">
</g>
<g id="Rectangle_1_4_" class="st0">
</g>
<g id="Rectangle_1_copy_4_" class="st0">
</g>
<g id="Rectangle_1_copy_2_4_" class="st0">
</g>
<g id="Rectangle_1_copy_3_4_" class="st0">
</g>
<g id="Shape_1_4_" class="st1">
</g>
<g id="Rectangle_1_3_" class="st0">
</g>
<g id="Rectangle_1_copy_3_" class="st0">
</g>
<g id="Rectangle_1_copy_2_3_" class="st0">
</g>
<g id="Rectangle_1_copy_3_3_" class="st0">
</g>
<g id="Shape_1_3_" class="st1">
</g>
<g id="Rectangle_1_5_" class="st0">
</g>
<g id="Rectangle_1_copy_5_" class="st0">
</g>
<g id="Rectangle_1_copy_2_5_" class="st0">
</g>
<g id="Rectangle_1_copy_3_5_" class="st0">
</g>
<g id="Shape_1_5_" class="st1">
</g>
<g>
	<path d="M1.5,78c0.1-0.8,0.3-1.7,0.4-2.5c0.9-4.1,3.1-7.2,6.8-9c2.8-1.3,5.7-1.5,8.8-1.2c2.5,0.3,4.6,1.2,6.7,2.5
		c0.5,0.3,0.6,0.6,0.4,1.2c-0.4,1-0.8,1.9-1.2,3c-0.1,0.3-0.3,0.4-0.5,0.5c-0.4,0.1-0.6,0.1-0.9-0.4c-0.5-0.8-1-1.7-1.7-2.5
		c-2.6-2.6-5.9-2.3-8.6-0.8C9.3,70.1,8,72.5,7.4,75c-0.5,1.8-0.6,3.6-0.5,5.6C7,84,8.2,86.8,10.8,89c1.8,1.5,4.1,2.1,6.5,1.8
		c1.9-0.3,3.6-1.2,5.2-2.6c0.3-0.3,0.6-0.3,1-0.1c0.1,0,0.4,0.5,0.3,0.8c0,0.6-0.1,1.4-0.3,2.1c0,0.3-0.3,0.4-0.4,0.5
		c-1.5,1.2-3.2,1.8-5.2,2.1c-3.1,0.4-6.2,0.1-9.2-1.3c-3.2-1.5-5.4-4.1-6.5-7.5c-0.4-1.2-0.5-2.3-0.6-3.5c0-0.1-0.1-0.1-0.1-0.3
		C1.5,80.1,1.5,79.1,1.5,78z"/>
	<path d="M69.9,73.2c-0.6,1.8-1.3,3.5-1.9,5.3c-1,3-2.2,6.1-3.2,9c-0.5,1.5-1.2,3.1-1.7,4.6c-0.1,0.5-0.4,0.6-0.9,0.6
		c-0.5,0-0.6-0.4-0.8-0.8c-1.2-3.2-2.2-6.3-3.4-9.6c-1-2.7-1.9-5.6-3-8.3c-0.1-0.4-0.3-0.6-0.6-1c-0.1,1.2-0.1,2.3-0.3,3.5
		c-0.3,2.5-0.4,4.9-0.6,7.4c-0.1,1.5-0.3,3-0.1,4.5c0.1,1.3,0.9,2.2,2.2,2.6c0.8,0.3,0.9,0.5,0.6,1.2c-0.1,0.3-0.4,0.5-0.6,0.5
		c-2.2,0-4.4,0-6.6,0c-0.3,0-0.5-0.3-0.5-0.4c0-0.4-0.3-1,0.3-1.2c1.9-0.3,2.2-1.7,2.5-3.2c0.3-1.7,0.3-3.4,0.4-4.9
		c0.3-2.6,0.4-5,0.6-7.6c0.1-1.9,0.3-3.9,0.4-5.8c0.1-0.9-0.5-1.3-1-1.7c-0.4-0.3-0.9-0.4-1.4-0.6c-0.6-0.3-0.4-0.8-0.4-1.2
		s0.4-0.4,0.6-0.4c1.5,0,3.1,0,4.6,0c1,0,1,0,1.4,0.9c2.1,5.8,4,11.5,6.1,17.3c0.1,0.4,0.3,0.9,0.6,1.3c0.3-0.6,0.5-1.2,0.6-1.8
		c1.5-4.3,3.1-8.5,4.5-12.8c0.5-1.4,1-3,1.5-4.4c0.1-0.3,0.4-0.4,0.6-0.4c1.7-0.1,3.2-0.1,4.9-0.1c0.5,0,0.8,0.3,0.8,0.8
		c0,0.4,0,0.9-0.5,0.9c-1.5,0-1.9,1.2-1.9,2.3c-0.1,1.4,0,2.8,0.1,4.4c0.1,1.7,0.3,3.4,0.4,5c0.1,2.1,0.3,4,0.5,6.1
		c0.1,1.3,0.3,2.7,0.4,4c0.1,1.2,0.6,1.8,1.8,1.9c0.8,0.1,0.6,0.6,0.6,1.2S77.2,93,76.9,93c-2.5,0-4.9,0-7.4,0
		c-0.5,0-0.8-0.1-0.8-0.6c0-0.5-0.1-0.9,0.5-1c1.3-0.4,1.8-1,1.8-2.3c-0.1-2.7-0.4-5.4-0.5-8.3c-0.1-1.7-0.1-3.2-0.3-4.9
		C70.1,75,70,74.1,69.9,73.2L69.9,73.2z"/>
	<path d="M100.9,79.6c0.3-5,2.1-9,6.2-11.7c1.7-1.2,3.5-1.7,5.3-1.9c2.3-0.4,4.4,0.1,6.5,1.2c2.3,1.2,4.1,3,5.4,5.3
		c1.3,2.3,1.8,4.9,1.7,7.5c0,3-0.9,5.7-2.7,8.1c-1.5,2.3-3.6,4-6.3,4.8c-3.7,1.2-7.2,0.8-10.5-1.7c-3-2.3-4.8-5.3-5.3-9
		C101,81.2,100.9,80.3,100.9,79.6z M105.1,78.4c0.1,1.2,0.3,2.3,0.4,3.5c0.4,2.8,1.4,5.4,3.2,7.5c2.2,2.5,5.6,3,8.5,1
		c2.6-1.7,3.6-4.3,4.1-7.2c0.3-1.7,0.3-3.5,0-5.2c-0.3-2.2-0.8-4.3-1.8-6.1c-1.5-2.7-3.6-4.6-7.1-4.3c-2.2,0.1-4,1.2-5.2,3
		C105.7,72.9,105,75.6,105.1,78.4z"/>
	<path d="M49.7,79.4c0,4.6-1.8,8.5-5.6,11.5c-1.7,1.3-3.7,1.9-5.9,2.2c-3.5,0.4-6.3-0.6-8.9-3c-2.3-2.1-3.7-4.8-4.3-7.9
		c-0.4-2.3-0.4-4.6,0.3-7c1.5-5,4.6-8.4,9.9-9.4c3.9-0.8,7.2,0.3,10.2,3c2.5,2.3,3.7,5.2,4.1,8.5c0,0.4,0.1,0.6,0.1,1
		C49.7,78.8,49.7,79.1,49.7,79.4z M29.1,78.5c0,0.4,0.1,1,0.1,1.7c0.1,2.3,0.6,4.6,1.8,6.7c0.9,1.7,2.2,3.2,4,4c3.1,1.3,6.8,0,8.6-3
		c1.3-2.2,1.9-4.5,1.9-7.1c0-3.1-0.5-6.2-1.9-9c-0.8-1.4-1.8-2.7-3.2-3.5c-2.8-1.7-7.2-0.9-9.4,2.5C29.6,73,29.1,75.6,29.1,78.5z"/>
	<path d="M129.5,71.3c0,1.3,0,2.7,0,4c0,4.4,0,8.8,0,13.2c0,0.4,0,0.9,0.1,1.3c0.3,1.2,0.8,1.5,2.2,1.7c0.8,0,0.6,0.5,0.6,0.9
		c0,0.5-0.3,0.6-0.8,0.6c-2.1,0-4.1,0-6.1,0c-0.4,0-0.8,0-0.8-0.6c0-0.5-0.1-0.9,0.6-1c1.7-0.1,1.8-0.9,2.1-2.6
		c0.1-1,0.1-2.1,0.1-3.1c0-4.5,0-9,0-13.6c0-0.8-0.1-1.5-0.3-2.3c-0.3-1.2-1.2-1.9-2.5-2.2c-0.9-0.1-0.5-0.6-0.5-1.2
		c-0.3-0.5,0.1-0.5,0.4-0.5c1.8,0,3.5,0,5.3,0c0.3,0,0.6,0.3,0.8,0.4c2.3,3.2,4.5,6.6,6.8,9.9c1.9,2.7,3.7,5.4,5.7,8.1
		c0.1,0.3,0.4,0.5,0.8,0.8c0-0.4,0-0.6,0-0.9c0-4.3,0-8.6,0-12.9c0-0.8-0.1-1.5-0.3-2.3c-0.1-1-0.8-1.4-1.8-1.5
		c-0.6,0-0.8-0.3-0.8-0.9c0-0.6,0.4-0.6,0.8-0.6c2.1,0,4.1,0,6.1,0c0.5,0,0.8,0.3,0.8,0.8s-0.1,0.8-0.6,0.8c-1.8,0-2.1,1-2.2,2.3
		c-0.1,2.8-0.1,5.8-0.1,8.6c0,4.5,0,9,0,13.6c0,0.4,0.1,0.6-0.4,0.8c-0.5,0.1-0.9,0-1.2-0.4c-1.2-1.5-2.2-3.2-3.4-4.8
		c-3.2-4.6-6.5-9.3-9.7-13.8c-0.6-0.9-1.3-1.8-1.8-2.7C129.5,71.2,129.5,71.2,129.5,71.3z"/>
	<path d="M85.8,68.1c0,1.7,0,3.2,0,4.8c0,1.7,0,3.4,0,5c0,0.5,0.1,0.6,0.6,0.6c1.7,0,3.5,0,5.2,0c1.4,0,1.8-0.4,2.1-1.7
		c0.1-0.4,0.1-0.9,0.8-0.9c0.8,0,0.8,0,0.8,0.9c0,1.8,0,3.7,0,5.6c0,0.3,0.1,0.8-0.4,0.8c-0.5,0-1,0.1-1-0.6c0-0.3-0.3-0.6-0.3-0.9
		c-0.1-0.8-0.8-0.9-1.4-0.9c-1.9,0-3.7,0-5.7,0c-0.4,0-0.5,0.1-0.5,0.5c0,3,0,5.9,0,8.9c0,0.6,0.5,0.9,1,0.9c2.2,0,4.4-0.1,6.5-0.1
		c0.8,0,1.4-0.6,1.8-1.3c0.3-0.5,0.5-1,0.8-1.5c0.1-0.3,0.4-0.5,0.6-0.5c0.8-0.1,1,0.1,0.9,0.9c-0.3,1-0.4,2.1-0.6,3.1
		c-0.5,1.9,0,1.8-2.3,1.8c-4.6,0-9.4,0-14.1,0c-0.9,0-1.3-0.4-0.9-1.3c0-0.1,0.4-0.3,0.5-0.4c1.4-0.3,1.9-0.9,1.9-2.3
		c0-6.5,0-12.8,0-19.2c0-1.4-0.3-2.1-1.9-2.3c-0.6-0.1-0.5-0.5-0.5-0.9s0-0.6,0.5-0.6c0.6,0,1.3,0,1.9,0c4.5,0,9.2,0,13.7,0
		c0.9,0,0.9,0,0.9,0.8c0,1.2,0,2.5,0,3.6c0,0.4,0,0.6-0.5,0.8c-0.5,0-0.6-0.3-0.8-0.6c-0.1-0.4-0.1-0.6-0.3-1c-0.3-1-1-1.4-1.9-1.4
		C90.7,68.1,88.2,68.1,85.8,68.1z"/>
	<path d="M102,69.1c0,1.2-0.4,1.9-1.3,2.2c-0.9,0.3-1.9,0-2.5-0.9c-0.5-0.8-0.5-1.8-0.4-2.7c0.4-2.2,1.5-4,3.5-5.2
		c0.4-0.3,0.9-0.6,1.3,0c0.4,0.4,0.1,0.9-0.4,1.4c-0.6,0.6-1.3,1.2-1.8,1.9c-0.6,0.9-0.5,1.2,0.4,1.5
		C101.8,67.7,102.2,68.3,102,69.1z"/>
	<path class="st2" d="M105.1,78.4c0-2.8,0.6-5.4,2.3-7.7c1.3-1.8,3.1-2.7,5.2-3c3.4-0.3,5.6,1.5,7.1,4.3c1,1.9,1.5,4,1.8,6.1
		c0.3,1.7,0.3,3.5,0,5.2c-0.6,3-1.7,5.7-4.3,7.2c-3,1.9-6.3,1.4-8.5-1c-1.9-2.1-2.8-4.6-3.2-7.5C105.3,80.7,105.1,79.6,105.1,78.4z"
		/>
	<path class="st2" d="M29.1,78.5c0-3,0.5-5.4,1.9-7.7c2.2-3.4,6.6-4.1,9.4-2.5c1.4,0.9,2.5,2.1,3.2,3.5c1.5,2.8,1.9,5.9,1.9,9
		c0,2.5-0.6,4.9-1.9,7.1c-1.8,3-5.4,4.3-8.6,3c-1.8-0.8-3.1-2.3-4-4c-1.2-2.1-1.7-4.4-1.8-6.7C29.2,79.6,29.1,78.8,29.1,78.5z"/>
</g>
</svg>
